<?xml version="1.0" encoding="iso-8859-1"?>
<!-- Generator: Adobe Illustrator 19.0.0, SVG Export Plug-In . SVG Version: 6.00 Build 0)  -->
<svg xmlns="http://www.w3.org/2000/svg" xmlns:xlink="http://www.w3.org/1999/xlink" version="1.1" id="Layer_1" x="0px" y="0px" viewBox="0 0 497 497" style="enable-background:new 0 0 497 497;" xml:space="preserve" width="512" height="512">
<g>
	<circle style="fill:#E7636C;" cx="248.5" cy="248.5" r="248.5"/>
	<path style="fill:#ECEAEC;" d="M372.285,407.64l13.899-27.608l21.456-7.747l0,0c26.614-34.166,42.473-77.122,42.473-123.785   c0-111.348-90.265-201.613-201.613-201.613c-46.663,0-89.619,15.86-123.785,42.474l-9.993,23.338L89.36,124.715   C62.746,158.881,46.887,201.837,46.887,248.5c0,111.348,90.265,201.613,201.613,201.613   C295.163,450.113,338.118,434.254,372.285,407.64L372.285,407.64z"/>
	<polygon style="fill:#A8C3DA;" points="333.5,133.35 357.165,245.745 333.5,358.14 212.93,311.19 164.55,245.75 212.93,180.3  "/>
	<path style="fill:#93ACC0;" d="M147.409,180.305c-17.254,0-31.242,13.987-31.242,31.242v68.398   c0,17.254,13.987,31.242,31.242,31.242h65.517V180.305H147.409z"/>
	<path style="fill:#93ACC0;" d="M380.83,151.38v225.19l-47.33-18.43V133.35l13.35-5.2C363.2,121.78,380.83,133.84,380.83,151.38z"/>
	<path style="fill:#DD4452;" d="M89.36,124.715L372.285,407.64c13.195-10.278,25.077-22.161,35.355-35.355L124.715,89.36   C111.52,99.638,99.638,111.52,89.36,124.715z"/>
	<path style="fill:#E7636C;" d="M146.172,110.816c-13.429,10.006-25.349,21.927-35.356,35.355l240.012,240.012   c13.429-10.006,25.349-21.927,35.355-35.355L146.172,110.816z"/>
</g>















</svg>
